<mxfile modified="2021-06-15T07:17:02.110Z" host="app.diagrams.net" agent="5.0 (Windows NT 10.0; Win64; x64) AppleWebKit/537.36 (KHTML, like Gecko) Chrome/91.0.4472.101 Safari/537.36" etag="naqtaAQ_JjkJjdXb9TFi" version="14.7.7" type="github" pages="3">
  <diagram id="WI9T0HZ2pTsCkuznbFz-" name="Ref">
    <mxGraphModel dx="2207" dy="556" grid="0" gridSize="10" guides="1" tooltips="1" connect="1" arrows="1" fold="1" page="1" pageScale="1" pageWidth="1169" pageHeight="827" math="0" shadow="0">
      <root>
        <mxCell id="0" />
        <mxCell id="1" parent="0" />
        <mxCell id="AcxdMaKK0mU5kZiv2lnr-30" style="edgeStyle=orthogonalEdgeStyle;rounded=0;orthogonalLoop=1;jettySize=auto;html=1;strokeColor=#808080;entryX=1.064;entryY=0.4;entryDx=0;entryDy=0;entryPerimeter=0;" parent="1" target="AcxdMaKK0mU5kZiv2lnr-13" edge="1">
          <mxGeometry relative="1" as="geometry">
            <mxPoint x="-10" y="540" as="sourcePoint" />
            <mxPoint x="-89.27184466019435" y="630.514563106796" as="targetPoint" />
            <Array as="points">
              <mxPoint x="-10" y="610" />
            </Array>
          </mxGeometry>
        </mxCell>
        <mxCell id="AcxdMaKK0mU5kZiv2lnr-19" style="edgeStyle=orthogonalEdgeStyle;rounded=0;orthogonalLoop=1;jettySize=auto;html=1;strokeColor=#808080;" parent="1" source="AcxdMaKK0mU5kZiv2lnr-1" target="AcxdMaKK0mU5kZiv2lnr-3" edge="1">
          <mxGeometry relative="1" as="geometry">
            <Array as="points">
              <mxPoint x="122" y="439.25" />
            </Array>
          </mxGeometry>
        </mxCell>
        <mxCell id="AcxdMaKK0mU5kZiv2lnr-24" style="edgeStyle=elbowEdgeStyle;rounded=0;orthogonalLoop=1;jettySize=auto;html=1;entryX=0.009;entryY=0.518;entryDx=0;entryDy=0;entryPerimeter=0;elbow=vertical;strokeColor=#808080;" parent="1" edge="1">
          <mxGeometry relative="1" as="geometry">
            <mxPoint x="-319" y="534" as="sourcePoint" />
            <mxPoint x="-256.1627906976744" y="533.6976744186047" as="targetPoint" />
            <Array as="points">
              <mxPoint x="-290" y="534" />
            </Array>
          </mxGeometry>
        </mxCell>
        <mxCell id="AcxdMaKK0mU5kZiv2lnr-25" style="edgeStyle=orthogonalEdgeStyle;rounded=0;orthogonalLoop=1;jettySize=auto;html=1;strokeColor=#808080;" parent="1" source="AcxdMaKK0mU5kZiv2lnr-11" edge="1">
          <mxGeometry relative="1" as="geometry">
            <mxPoint x="-120" y="414" as="targetPoint" />
          </mxGeometry>
        </mxCell>
        <mxCell id="AcxdMaKK0mU5kZiv2lnr-26" style="edgeStyle=orthogonalEdgeStyle;rounded=0;orthogonalLoop=1;jettySize=auto;html=1;entryX=0.406;entryY=0;entryDx=0;entryDy=0;entryPerimeter=0;strokeColor=#808080;" parent="1" source="AcxdMaKK0mU5kZiv2lnr-11" target="AcxdMaKK0mU5kZiv2lnr-13" edge="1">
          <mxGeometry relative="1" as="geometry" />
        </mxCell>
        <mxCell id="AcxdMaKK0mU5kZiv2lnr-28" style="edgeStyle=orthogonalEdgeStyle;rounded=0;orthogonalLoop=1;jettySize=auto;html=1;exitX=1.014;exitY=0.505;exitDx=0;exitDy=0;exitPerimeter=0;entryX=0.498;entryY=0.012;entryDx=0;entryDy=0;entryPerimeter=0;strokeColor=#808080;" parent="1" source="AcxdMaKK0mU5kZiv2lnr-12" edge="1">
          <mxGeometry relative="1" as="geometry">
            <mxPoint x="-7.5900000000001455" y="489.6" as="targetPoint" />
          </mxGeometry>
        </mxCell>
        <mxCell id="AcxdMaKK0mU5kZiv2lnr-27" style="edgeStyle=orthogonalEdgeStyle;rounded=0;orthogonalLoop=1;jettySize=auto;html=1;exitX=1.004;exitY=0.609;exitDx=0;exitDy=0;exitPerimeter=0;strokeColor=#808080;" parent="1" source="AcxdMaKK0mU5kZiv2lnr-13" edge="1">
          <mxGeometry relative="1" as="geometry">
            <mxPoint y="540" as="targetPoint" />
            <Array as="points">
              <mxPoint y="620" />
            </Array>
          </mxGeometry>
        </mxCell>
        <mxCell id="AcxdMaKK0mU5kZiv2lnr-1" value="Live Source" style="shape=image;verticalLabelPosition=bottom;labelBackgroundColor=#ffffff;verticalAlign=top;aspect=fixed;imageAspect=0;image=data:image/svg+xml,PHN2ZyB4bWxuczpjYz0iaHR0cDovL2NyZWF0aXZlY29tbW9ucy5vcmcvbnMjIiB4bWxuczpkYz0iaHR0cDovL3B1cmwub3JnL2RjL2VsZW1lbnRzLzEuMS8iIHhtbG5zOmlua3NjYXBlPSJodHRwOi8vd3d3Lmlua3NjYXBlLm9yZy9uYW1lc3BhY2VzL2lua3NjYXBlIiB4bWxuczpyZGY9Imh0dHA6Ly93d3cudzMub3JnLzE5OTkvMDIvMjItcmRmLXN5bnRheC1ucyMiIHhtbG5zOnNvZGlwb2RpPSJodHRwOi8vc29kaXBvZGkuc291cmNlZm9yZ2UubmV0L0RURC9zb2RpcG9kaS0wLmR0ZCIgeG1sbnM6c3ZnPSJodHRwOi8vd3d3LnczLm9yZy8yMDAwL3N2ZyIgeG1sbnM9Imh0dHA6Ly93d3cudzMub3JnLzIwMDAvc3ZnIiB4bWxuczp4bGluaz0iaHR0cDovL3d3dy53My5vcmcvMTk5OS94bGluayIgdmVyc2lvbj0iMS4xIiBpZD0ic3ZnNDYyMjYiIGlua3NjYXBlOnZlcnNpb249IjAuOTIuMyAoMjQwNTU0NiwgMjAxOC0wMy0xMSkiIHNvZGlwb2RpOmRvY25hbWU9ImNhbWVyYS5zdmciIHg9IjBweCIgeT0iMHB4IiB2aWV3Qm94PSIwIDAgNDYuNzggMzUuMTEiIHN0eWxlPSJlbmFibGUtYmFja2dyb3VuZDpuZXcgMCAwIDQ2Ljc4IDM1LjExOyIgeG1sOnNwYWNlPSJwcmVzZXJ2ZSI+JiN4YTs8c29kaXBvZGk6bmFtZWR2aWV3IGJvcmRlcmNvbG9yPSIjNjY2NjY2IiBib3JkZXJvcGFjaXR5PSIxIiBmaXQtbWFyZ2luLWJvdHRvbT0iMCIgZml0LW1hcmdpbi1sZWZ0PSIwIiBmaXQtbWFyZ2luLXJpZ2h0PSIwIiBmaXQtbWFyZ2luLXRvcD0iMCIgZ3JpZHRvbGVyYW5jZT0iMTAiIGd1aWRldG9sZXJhbmNlPSIxMCIgaWQ9Im5hbWVkdmlldzQ2MjI4IiBpbmtzY2FwZTpjdXJyZW50LWxheWVyPSJzdmc0NjIyNiIgaW5rc2NhcGU6Y3g9IjMxLjE4Mzc3NyIgaW5rc2NhcGU6Y3k9IjIzLjQwNTI0OSIgaW5rc2NhcGU6cGFnZW9wYWNpdHk9IjAiIGlua3NjYXBlOnBhZ2VzaGFkb3c9IjIiIGlua3NjYXBlOndpbmRvdy1oZWlnaHQ9IjEwMTciIGlua3NjYXBlOndpbmRvdy1tYXhpbWl6ZWQ9IjEiIGlua3NjYXBlOndpbmRvdy13aWR0aD0iMTkyMCIgaW5rc2NhcGU6d2luZG93LXg9Ii04IiBpbmtzY2FwZTp3aW5kb3cteT0iLTgiIGlua3NjYXBlOnpvb209IjE4LjUxOTI1OSIgb2JqZWN0dG9sZXJhbmNlPSIxMCIgcGFnZWNvbG9yPSIjZmZmZmZmIiBzaG93Z3JpZD0iZmFsc2UiPiYjeGE7CTwvc29kaXBvZGk6bmFtZWR2aWV3PiYjeGE7PGcgaWQ9Imc0NjIyNCI+JiN4YTsJPHRpdGxlIGlkPSJ0aXRsZTQ2MjE3Ij5QYWdlLTE8L3RpdGxlPiYjeGE7CTxnIGlkPSJzaGFwZTEwOC0xIj4mI3hhOwkJPHRpdGxlIGlkPSJ0aXRsZTQ2MjE5Ij5DYW1lcmE8L3RpdGxlPiYjeGE7CQk8cGF0aCBpZD0icGF0aDQ2MjIxIiBpbmtzY2FwZTpjb25uZWN0b3ItY3VydmF0dXJlPSIwIiBzdHlsZT0iZmlsbDojM0Y1NzY1OyIgZD0iTTQ2Ljc4LDEzLjUzYzAsMjAuMTIsMCwyMC4xMiwwLDIwLjEyICAgIGMwLDAuNzMtMC43NCwxLjQ2LTEuODMsMC43M2MtNC4zOS0zLjY2LTQuMzktMy42Ni00LjM5LTMuNjZjMC0wLjczLTEuMDktMC43My0xLjA5LTEuODNjLTEuODMsMC0xLjgzLDAtMS44MywwICAgIGMwLDQuNzYsMCw0Ljc2LDAsNC43NmMwLDAuNzMtMC43MywxLjQ2LTEuODMsMS40NmMtMjkuMjMsMC0yOS4yMywwLTI5LjIzLDBjLTAuNzMsMC0xLjgzLTAuNzMtMS44My0xLjQ2YzAtMTcuMTksMC0xNy4xOSwwLTE3LjE5ICAgIGMwLTEuODMsMS4xLTIuOTMsMS44My0yLjkzYzI5LjIzLDAsMjkuMjMsMCwyOS4yMywwYzEuMSwwLDEuODMsMS4xLDEuODMsMi45M3MwLDEuODMsMCwxLjgzYzEuODMsMCwxLjgzLDAsMS44MywwbDEuMDktMS4xICAgIGM0LjM5LTQuMzksNC4zOS00LjM5LDQuMzktNC4zOUM0Ni4wNCwxMi44LDQ2Ljc4LDEyLjgsNDYuNzgsMTMuNTN6IE0xLjgzLDE0LjYzQzEuMSwxNC42MywwLDE1LjM2LDAsMTYuNDZjMCw2LjIyLDAsNi4yMiwwLDYuMjIgICAgYzAsMC43MywxLjEsMS44MywxLjgzLDEuODNjMS4wOSwwLDIuMTktMS4xLDIuMTktMS44M2MwLTYuMjIsMC02LjIyLDAtNi4yMkM0LjAyLDE1LjM2LDIuOTIsMTQuNjMsMS44MywxNC42M3ogTTI4LjUsMTIuOCAgICBjMy42NiwwLDYuNTgtMi41Niw2LjU4LTYuMjJDMzUuMDgsMi45MywzMi4xNiwwLDI4LjUsMGMtMy42NSwwLTcuMywyLjkzLTcuMyw2LjU4QzIxLjIsMTAuMjQsMjQuODUsMTIuOCwyOC41LDEyLjh6IE0xMy44OSwxMi44ICAgIGMzLjY1LDAsNi41Ny0yLjU2LDYuNTctNi4yMmMwLTMuNjUtMi45Mi02LjU4LTYuNTctNi41OGMtMy42NiwwLTcuMzEsMi45My03LjMxLDYuNThDNi41OCwxMC4yNCwxMC4yMywxMi44LDEzLjg5LDEyLjh6Ii8+JiN4YTsJPC9nPiYjeGE7PC9nPiYjeGE7PC9zdmc+;" parent="1" vertex="1">
          <mxGeometry x="30" y="389.25" width="64" height="48" as="geometry" />
        </mxCell>
        <mxCell id="AcxdMaKK0mU5kZiv2lnr-3" value="3rd party&#xa;On-Premises&#xa;Live Encoder&#xa;" style="shape=image;verticalLabelPosition=bottom;labelBackgroundColor=#ffffff;verticalAlign=top;aspect=fixed;imageAspect=0;image=data:image/svg+xml,PHN2ZyB4bWxuczpjYz0iaHR0cDovL2NyZWF0aXZlY29tbW9ucy5vcmcvbnMjIiB4bWxuczpkYz0iaHR0cDovL3B1cmwub3JnL2RjL2VsZW1lbnRzLzEuMS8iIHhtbG5zOmlua3NjYXBlPSJodHRwOi8vd3d3Lmlua3NjYXBlLm9yZy9uYW1lc3BhY2VzL2lua3NjYXBlIiB4bWxuczpyZGY9Imh0dHA6Ly93d3cudzMub3JnLzE5OTkvMDIvMjItcmRmLXN5bnRheC1ucyMiIHhtbG5zOnNvZGlwb2RpPSJodHRwOi8vc29kaXBvZGkuc291cmNlZm9yZ2UubmV0L0RURC9zb2RpcG9kaS0wLmR0ZCIgeG1sbnM6c3ZnPSJodHRwOi8vd3d3LnczLm9yZy8yMDAwL3N2ZyIgeG1sbnM9Imh0dHA6Ly93d3cudzMub3JnLzIwMDAvc3ZnIiB4bWxuczp4bGluaz0iaHR0cDovL3d3dy53My5vcmcvMTk5OS94bGluayIgdmVyc2lvbj0iMS4xIiBpZD0ic3ZnNTQ2MTgiIGlua3NjYXBlOnZlcnNpb249IjAuOTIuMyAoMjQwNTU0NiwgMjAxOC0wMy0xMSkiIHNvZGlwb2RpOmRvY25hbWU9ImVuY29kaW5nLnN2ZyIgeD0iMHB4IiB5PSIwcHgiIHZpZXdCb3g9IjAgMCAyMi44MiAyMS41OCIgc3R5bGU9ImVuYWJsZS1iYWNrZ3JvdW5kOm5ldyAwIDAgMjIuODIgMjEuNTg7IiB4bWw6c3BhY2U9InByZXNlcnZlIj4mI3hhOzxzb2RpcG9kaTpuYW1lZHZpZXcgYm9yZGVyY29sb3I9IiM2NjY2NjYiIGJvcmRlcm9wYWNpdHk9IjEiIGZpdC1tYXJnaW4tYm90dG9tPSIwIiBmaXQtbWFyZ2luLWxlZnQ9IjAiIGZpdC1tYXJnaW4tcmlnaHQ9IjAiIGZpdC1tYXJnaW4tdG9wPSIwIiBncmlkdG9sZXJhbmNlPSIxMCIgZ3VpZGV0b2xlcmFuY2U9IjEwIiBpZD0ibmFtZWR2aWV3NTQ2MjAiIGlua3NjYXBlOmN1cnJlbnQtbGF5ZXI9InN2ZzU0NjE4IiBpbmtzY2FwZTpjeD0iMTEuMjk4ODY0IiBpbmtzY2FwZTpjeT0iLTEuMDQxNTI5MSIgaW5rc2NhcGU6cGFnZW9wYWNpdHk9IjAiIGlua3NjYXBlOnBhZ2VzaGFkb3c9IjIiIGlua3NjYXBlOndpbmRvdy1oZWlnaHQ9IjEwMTciIGlua3NjYXBlOndpbmRvdy1tYXhpbWl6ZWQ9IjEiIGlua3NjYXBlOndpbmRvdy13aWR0aD0iMTkyMCIgaW5rc2NhcGU6d2luZG93LXg9Ii04IiBpbmtzY2FwZTp3aW5kb3cteT0iLTgiIGlua3NjYXBlOnpvb209IjEwLjY1MzgzNiIgb2JqZWN0dG9sZXJhbmNlPSIxMCIgcGFnZWNvbG9yPSIjZmZmZmZmIiBzaG93Z3JpZD0iZmFsc2UiPiYjeGE7CTwvc29kaXBvZGk6bmFtZWR2aWV3PiYjeGE7PGcgaWQ9Imc1NDYxNiIgdHJhbnNmb3JtPSJ0cmFuc2xhdGUoLTIuNzQwNjUzNWUtNSwwLjAwMzE0NTc0KSI+JiN4YTsJPHRpdGxlIGlkPSJ0aXRsZTU0NjA5Ij5QYWdlLTE8L3RpdGxlPiYjeGE7CTxnIGlkPSJzaGFwZTMwODQtMSI+JiN4YTsJCTx0aXRsZSBpZD0idGl0bGU1NDYxMSI+RW5jb2Rpbmc8L3RpdGxlPiYjeGE7CQk8cGF0aCBpZD0icGF0aDU0NjEzIiBpbmtzY2FwZTpjb25uZWN0b3ItY3VydmF0dXJlPSIwIiBzdHlsZT0iZmlsbDojM0Y1NzY1OyIgZD0iTTIyLjgyLDEzLjMxYzAtMC44NSwwLTQuNzktMC4wOC04LjY3ICAgIGMwLTIuNDQtMi4zNC00Ljc0LTUuODctNC42NEMxNi4zMiwwLDgsMC4wNyw4LDAuMDdDNi45OSwwLjE1LDYuODQsMC45NCw2Ljg0LDEuMzNzMCwwLjA3LDAsMC42M2MwLDAuNDgsMC41MywwLjg3LDEuMDksMC45NCAgICBjMCwwLDAsMCwwLDAuMWMwLDAuMDcsMCwwLjA3LDAuMDcsMC4xNEM3LjU0LDMuNyw3LjU0LDMuNyw3LjU0LDMuN2MwLDAuNjMsMCwwLjYzLDAsMC42M2MtNC40LDAtNC40LDAtNC40LDAgICAgYzAsMi44MywwLDIuODMsMCwyLjgzQzAsNy4xNiwwLDcuMTYsMCw3LjE2YzAsMy44LDAsMy44LDAsMy44YzE2LjI0LDAsMTYuMjQsMCwxNi4yNCwwYzAtMy44LDAtMy44LDAtMy44Yy0yLjIsMC0yLjIsMC0yLjIsMCAgICBjMC0yLjgzLDAtMi44MywwLTIuODNjLTMuOTgsMC0zLjk4LDAtMy45OCwwYzAtMC41NiwwLTAuNTYsMC0wLjU2QzkuNTcsMy4xNCw5LjU3LDMuMTQsOS41NywzLjE0YzAtMC4wNywwLjA3LTAuMDcsMC4wNy0wLjE0ICAgIGMwLTAuMSwwLTAuMS0wLjA3LTAuMTdjMi4xMywwLDUuNTktMC4wNyw2LjIxLTAuMDdjMy41MSwwLDMuODIsMS40LDMuODIsMi4zN2MwLDAuODUsMC4xLDYuMjIsMC4xLDguMzQgICAgYzAuMDcsMi4wNi0zLjIyLDIuMDYtMy44NCwyLjA2Yy0wLjM5LDAtNC4zMywwLTYuMjIsMC4wN2wtMC4wNy0wLjA3Yy0wLjE0LDAtMC4xNCwwLTAuMTQsMGMwLTAuMSwwLTAuMSwwLTAuMSAgICBjMC4xNC0wLjA3LDAuMTQtMC4wNywwLjE0LTAuMDdoMC4wN2MwLTAuMDctMC4wNy0wLjA3LTAuMDctMC4wN2MtMC4xNCwwLTAuMTQsMC0wLjE0LDBjMC0wLjE3LDAtMC4xNywwLTAuMTcgICAgYzAuMTQsMCwwLjE0LDAsMC4xNCwwczAuMDcsMCwwLjA3LTAuMDdIOS41N2MtMC4xNCwwLTAuMTQsMC0wLjE0LDBjMC0wLjE1LDAtMC4xNSwwLTAuMTVjMC4xNCwwLDAuMTQsMCwwLjE0LDBzMC4wNywwLDAuMDctMC4wOSAgICBIOS41N2MtMC4xNCwwLTAuMTQsMC0wLjE0LDBjMC0wLjE1LDAtMC4xNSwwLTAuMTVjMC4xNCwwLDAuMTQsMCwwLjE0LDBsMC4wNy0wLjFsLTAuMDctMC4wN2MtMC4xNCwwLTAuMTQsMC0wLjE0LDAgICAgYzAtMC4xNCwwLTAuMTQsMC0wLjE0YzAuMTQsMCwwLjE0LDAsMC4xNCwwaDAuMDdjMC0wLjEtMC4wNy0wLjEtMC4wNy0wLjFjLTAuMTQsMC0wLjE0LDAtMC4xNCwwQzkuMzUsMTQuMSw5LjM1LDE0LjEsOS4zNSwxNC4xICAgIGMwLjIyLDAsMC4yMiwwLDAuMjIsMHMwLjA3LDAsMC4wNy0wLjA3Yy0wLjA3LDAtMC4wNywwLTAuMDcsMGMtMC4yMiwwLTAuMjIsMC0wLjIyLDBjMC0wLjE3LDAtMC4xNywwLTAuMTdjMC4yMiwwLDAuMjIsMCwwLjIyLDAgICAgdi0wLjA3di0wLjA3Yy0wLjIyLDAtMC4yMiwwLTAuMjIsMGMwLTAuMTcsMC0wLjE3LDAtMC4xN2MwLjIyLDAsMC4yMiwwLDAuMjIsMGwwLDBjMC0wLjA4LDAtMC4wOCwwLTAuMDhjLTAuMjIsMC0wLjIyLDAtMC4yMiwwICAgIGMwLTAuMTYsMC0wLjE2LDAtMC4xNmMwLjIyLDAsMC4yMiwwLDAuMjIsMHMwLDAsMC0wLjA4bDAsMGMtMC4yMiwwLTAuMjIsMC0wLjIyLDBjMC0wLjE0LDAtMC4xNCwwLTAuMTRjMC4yMiwwLDAuMjIsMCwwLjIyLDAgICAgdi0wLjF2LTAuMDdjLTAuMjIsMC0wLjIyLDAtMC4yMiwwYzAtMC4xNSwwLTAuMTUsMC0wLjE1YzAuMjIsMCwwLjIyLDAsMC4yMiwwbDAsMGMwLTAuMDksMC0wLjA5LDAtMC4wOWMtMC4yMiwwLTAuMjIsMC0wLjIyLDAgICAgYzAtMC4wOCwwLTAuMDgsMC0wLjA4YzAuMjIsMCwwLjIyLDAsMC4yMiwwYzAuMDcsMCwwLjE3LTAuMDcsMC4xNy0wLjE0YzAtMC4xLDAtMC4xLTAuMS0wLjE3YzAuNDktMC41NiwwLjQ5LTAuNTYsMC40OS0wLjU2ICAgIGMwLTAuNzcsMC0wLjc3LDAtMC43N2MtMi41MiwwLTIuNTIsMC0yLjUyLDBjMCwwLjcsMCwwLjcsMCwwLjdjMC40OSwwLjcsMC40OSwwLjcsMC40OSwwLjdjLTAuMSwwLTAuMSwwLjEtMC4xLDAuMSAgICBjMCwwLjE0LDAuMSwwLjE0LDAuMTcsMC4xNHMwLjA3LDAsMC4wNywwYzAsMC4wOCwwLDAuMDgsMCwwLjA4Yy0wLjE0LDAtMC4xNCwwLTAuMTQsMHYwLjA5djAuMDhjMC4xNCwwLDAuMTQsMCwwLjE0LDAgICAgYzAsMC4xNCwwLDAuMTQsMCwwLjE0Yy0wLjE0LDAtMC4xNCwwLTAuMTQsMGwwLDBjMCwwLjEsMCwwLjEsMCwwLjFjMC4xNCwwLDAuMTQsMCwwLjE0LDBjMCwwLjE0LDAsMC4xNCwwLDAuMTQgICAgYy0wLjE0LDAtMC4xNCwwLTAuMTQsMHMwLDAsMCwwLjA4bDAsMGMwLjE0LDAsMC4xNCwwLDAuMTQsMGMwLDAuMTYsMCwwLjE2LDAsMC4xNmMtMC4xNCwwLTAuMTQsMC0wLjE0LDB2MC4wOHYwLjA3ICAgIGMwLjE0LDAsMC4xNCwwLDAuMTQsMGMwLDAuMTcsMCwwLjE3LDAsMC4xN2MtMC4xNCwwLTAuMTQsMC0wLjE0LDBsMCwwYzAsMC4wNywwLDAuMDcsMC4wNywwLjA3czAuMDcsMCwwLjA3LDAgICAgYzAsMC4xNywwLDAuMTcsMCwwLjE3Yy0wLjA3LDAtMC4wNywwLTAuMDcsMGMtMC4wNywwLTAuMDcsMC0wLjA3LDAuMDdjMCwwLDAsMCwwLjA3LDBzMC4wNywwLDAuMDcsMGMwLDAuMTUsMCwwLjE1LDAsMC4xNSAgICBjLTAuMDcsMC0wLjA3LDAtMC4wNywwYy0wLjA3LDAtMC4wNywwLTAuMDcsMC4xYzAsMCwwLDAsMC4wNywwczAuMDcsMCwwLjA3LDBjMCwwLjE0LDAsMC4xNCwwLDAuMTRjLTAuMDcsMC0wLjA3LDAtMC4wNywwICAgIGMtMC4wNywwLTAuMDcsMC4wNy0wLjA3LDAuMDdjMCwwLjEsMCwwLjEsMC4wNywwLjFzMC4wNywwLDAuMDcsMGMwLDAuMTUsMCwwLjE1LDAsMC4xNWMtMC4wNywwLTAuMDcsMC0wLjA3LDAgICAgYy0wLjA3LDAtMC4wNywwLTAuMDcsMGMwLDAuMDksMCwwLjA5LDAuMDcsMC4wOXMwLjA3LDAsMC4wNywwYzAsMC4xNSwwLDAuMTUsMCwwLjE1Yy0wLjA3LDAtMC4wNywwLTAuMDcsMCAgICBjLTAuMDcsMC0wLjA3LDAtMC4wNywwLjA3YzAsMCwwLDAsMC4wNywwczAuMDcsMCwwLjA3LDBjMCwwLjE3LDAsMC4xNywwLDAuMTdjLTAuMDcsMC0wLjA3LDAtMC4wNywwYy0wLjA3LDAtMC4wNywwLjA3LTAuMDcsMC4wNyAgICBzMCwwLjA3LDAuMDcsMC4wN3MwLjA3LDAsMC4wNywwYzAsMC4xNywwLDAuMTcsMCwwLjE3Yy0wLjA3LDAtMC4wNywwLTAuMDcsMGMtMC4wNywwLTAuMDcsMC0wLjA3LDB2MC4wOCAgICBjLTAuNDEsMC4wNy0wLjczLDAuMzEtMC43MywwLjc5YzAsMC4zMiwwLDAuMzksMC4xLDAuODhjMCwwLjM4LDAuMzEsMC43NywwLjcsMC44NGwwLDBjMCwwLjEsMCwwLjEsMCwwLjFjMC4xNCwwLDAuMTQsMCwwLjE0LDAgICAgYzAsMC4xNCwwLDAuMTQsMCwwLjE0Yy0wLjE0LDAtMC4xNCwwLTAuMTQsMHMwLDAsMCwwLjA4bDAsMGMwLjE0LDAsMC4xNCwwLDAuMTQsMGMwLDAuMTcsMCwwLjE3LDAsMC4xN2MtMC4xNCwwLTAuMTQsMC0wLjE0LDAgICAgdjAuMDd2MC4wN2MwLjE0LDAsMC4xNCwwLDAuMTQsMGMwLDAuMTcsMCwwLjE3LDAsMC4xN2MtMC4xNCwwLTAuMTQsMC0wLjE0LDBsMCwwYzAsMC4wNywwLDAuMDcsMCwwLjA3YzAuMTQsMCwwLjE0LDAsMC4xNCwwICAgIGMwLDAuMTcsMCwwLjE3LDAsMC4xN2MtMC4xNCwwLTAuMTQsMC0wLjE0LDBzMCwwLDAsMC4wN2wwLDBjMC4xNCwwLDAuMTQsMCwwLjE0LDBjMCwwLjE1LDAsMC4xNSwwLDAuMTVjLTAuMTQsMC0wLjE0LDAtMC4xNCwwICAgIHYwLjF2MC4wN2MwLjE0LDAsMC4xNCwwLDAuMTQsMGMwLDAuMTcsMCwwLjE3LDAsMC4xN2MtMC4xNCwwLTAuMTQsMC0wLjE0LDBsMCwwYzAsMC4wNywwLDAuMDcsMC4wNywwLjA3czAuMDcsMCwwLjA3LDAgICAgYzAsMC4xNSwwLDAuMTUsMCwwLjE1Yy0wLjA3LDAtMC4wNywwLTAuMDcsMGMtMC4wNywwLTAuMDcsMC0wLjA3LDAuMDljMCwwLDAsMCwwLjA3LDBzMC4wNywwLDAuMDcsMGMwLDAuMDgsMCwwLjA4LDAsMC4wOCAgICBjLTAuNjIsMC0wLjYyLDAtMC42MiwwYzAsMC4yNCwwLDAuMjQsMCwwLjI0Yy0yLjksMC0yLjksMC0yLjksMGMtMC4yMiwwLTAuMzksMC4wNy0wLjM5LDAuMTRjMCwwLjA4LDAsMC4wOCwwLDAuMDggICAgYzAsMC4wOSwwLjE3LDAuMTYsMC4zOSwwLjE2YzIuOS0wLjA3LDIuOS0wLjA3LDIuOS0wLjA3YzAsMC4xNSwwLDAuMTUsMCwwLjE1YzAuNTUsMC43LDAuNTUsMC43LDAuNTUsMC43YzEuNSwwLDEuNSwwLDEuNSwwICAgIGMwLjUzLTAuNywwLjUzLTAuNywwLjUzLTAuN2MwLTAuMTUsMC0wLjE1LDAtMC4xNWMyLjgzLDAsMi44MywwLDIuODMsMGMwLjI0LTAuMDksMC40OC0wLjA5LDAuNDgtMC4xNyAgICBjLTAuMDktMC4xNC0wLjA5LTAuMTQtMC4wOS0wLjE0YzAtMC4xLTAuMTUtMC4xLTAuMzktMC4xYy0yLjgzLDAtMi44MywwLTIuODMsMGMwLTAuMTQsMC0wLjE0LDAtMC4xNGMtMC43NywwLTAuNzcsMC0wLjc3LDAgICAgYzAtMC4wOCwwLTAuMDgsMC0wLjA4YzAuMTQsMCwwLjE0LDAsMC4xNCwwczAuMSwwLDAuMS0wLjA5aC0wLjFjLTAuMjEsMC0wLjIxLDAtMC4yMSwwYzAtMC4xNSwwLTAuMTUsMC0wLjE1ICAgIGMwLjIxLDAsMC4yMSwwLDAuMjEsMHYtMC4wN3YtMC4xYy0wLjIxLDAtMC4yMSwwLTAuMjEsMGMwLTAuMTQsMC0wLjE0LDAtMC4xNGMwLjIxLDAsMC4yMSwwLDAuMjEsMGwwLDBjMC0wLjEsMC0wLjEsMC0wLjEgICAgYy0wLjIxLDAtMC4yMSwwLTAuMjEsMGMwLTAuMTUsMC0wLjE1LDAtMC4xNWMwLjIxLDAsMC4yMSwwLDAuMjEsMHMwLDAsMC0wLjA3bDAsMGMtMC4yMSwwLTAuMjEsMC0wLjIxLDBjMC0wLjE3LDAtMC4xNywwLTAuMTcgICAgYzAuMjEsMCwwLjIxLDAsMC4yMSwwdi0wLjA3di0wLjA3Yy0wLjIxLDAtMC4yMSwwLTAuMjEsMGMwLTAuMSwwLTAuMSwwLTAuMWMwLjIxLTAuMDcsMC4yMS0wLjA3LDAuMjEtMC4wN2wwLDAgICAgYzAtMC4wNywwLTAuMDcsMC0wLjA3Yy0wLjIxLDAtMC4yMSwwLTAuMjEsMGMwLTAuMTcsMC0wLjE3LDAtMC4xN2MwLjIxLDAsMC4yMSwwLDAuMjEsMGwwLDBjMC0wLjA4LDAtMC4wOCwwLTAuMDggICAgYy0wLjIxLDAtMC4yMSwwLTAuMjEsMGMwLTAuMTQsMC0wLjE0LDAtMC4xNGMwLjIxLDAsMC4yMSwwLDAuMjEsMHMwLDAsMC0wLjFsMCwwYzEuMzYsMCwzLjYzLTAuMDcsNy4zOC0wLjA3ICAgIEMyMi44MiwxOC4wNSwyMi44MiwxNC4yNSwyMi44MiwxMy4zMXoiLz4mI3hhOwk8L2c+JiN4YTs8L2c+JiN4YTs8L3N2Zz4=;" parent="1" vertex="1">
          <mxGeometry x="20" y="559.25" width="63" height="60" as="geometry" />
        </mxCell>
        <mxCell id="t1hzlKuld_CgmVLitGFj-11" style="edgeStyle=orthogonalEdgeStyle;rounded=0;orthogonalLoop=1;jettySize=auto;html=1;entryX=0;entryY=0.5;entryDx=0;entryDy=0;entryPerimeter=0;startArrow=classic;startFill=1;exitX=1.076;exitY=0.477;exitDx=0;exitDy=0;exitPerimeter=0;" parent="1" source="AcxdMaKK0mU5kZiv2lnr-5" target="t1hzlKuld_CgmVLitGFj-7" edge="1">
          <mxGeometry relative="1" as="geometry" />
        </mxCell>
        <mxCell id="AcxdMaKK0mU5kZiv2lnr-5" value="Teams/Web" style="aspect=fixed;html=1;perimeter=none;align=center;shadow=0;dashed=0;image;fontSize=12;image=img/lib/mscae/TaskVM.svg;labelBackgroundColor=none;" parent="1" vertex="1">
          <mxGeometry x="170" y="206" width="63" height="60" as="geometry" />
        </mxCell>
        <mxCell id="t1hzlKuld_CgmVLitGFj-5" style="edgeStyle=orthogonalEdgeStyle;rounded=0;orthogonalLoop=1;jettySize=auto;html=1;entryX=0.5;entryY=0.16;entryDx=0;entryDy=0;entryPerimeter=0;startArrow=classic;startFill=1;" parent="1" target="t1hzlKuld_CgmVLitGFj-2" edge="1">
          <mxGeometry relative="1" as="geometry">
            <mxPoint x="669" y="262.0000000000001" as="sourcePoint" />
          </mxGeometry>
        </mxCell>
        <mxCell id="t1hzlKuld_CgmVLitGFj-6" style="edgeStyle=orthogonalEdgeStyle;rounded=0;orthogonalLoop=1;jettySize=auto;html=1;entryX=1.035;entryY=0.555;entryDx=0;entryDy=0;entryPerimeter=0;startArrow=classic;startFill=1;" parent="1" source="AcxdMaKK0mU5kZiv2lnr-6" target="AcxdMaKK0mU5kZiv2lnr-9" edge="1">
          <mxGeometry relative="1" as="geometry" />
        </mxCell>
        <mxCell id="AcxdMaKK0mU5kZiv2lnr-6" value="Program" style="aspect=fixed;html=1;perimeter=none;align=center;shadow=0;dashed=0;image;fontSize=12;image=img/lib/mscae/WebApp_WebJobs.svg;labelBackgroundColor=none;" parent="1" vertex="1">
          <mxGeometry x="643" y="202.00000000000006" width="64" height="64" as="geometry" />
        </mxCell>
        <mxCell id="AcxdMaKK0mU5kZiv2lnr-8" value="Streaming&#xa;Endpoint&#xa;" style="shape=image;verticalLabelPosition=bottom;labelBackgroundColor=#ffffff;verticalAlign=top;aspect=fixed;imageAspect=0;image=data:image/svg+xml,PHN2ZyB4bWxuczpjYz0iaHR0cDovL2NyZWF0aXZlY29tbW9ucy5vcmcvbnMjIiB4bWxuczpkYz0iaHR0cDovL3B1cmwub3JnL2RjL2VsZW1lbnRzLzEuMS8iIHhtbG5zOmlua3NjYXBlPSJodHRwOi8vd3d3Lmlua3NjYXBlLm9yZy9uYW1lc3BhY2VzL2lua3NjYXBlIiB4bWxuczpyZGY9Imh0dHA6Ly93d3cudzMub3JnLzE5OTkvMDIvMjItcmRmLXN5bnRheC1ucyMiIHhtbG5zOnNvZGlwb2RpPSJodHRwOi8vc29kaXBvZGkuc291cmNlZm9yZ2UubmV0L0RURC9zb2RpcG9kaS0wLmR0ZCIgeG1sbnM6c3ZnPSJodHRwOi8vd3d3LnczLm9yZy8yMDAwL3N2ZyIgeG1sbnM9Imh0dHA6Ly93d3cudzMub3JnLzIwMDAvc3ZnIiB4bWxuczp4bGluaz0iaHR0cDovL3d3dy53My5vcmcvMTk5OS94bGluayIgdmVyc2lvbj0iMS4xIiBpZD0ic3ZnOTI3NzciIGlua3NjYXBlOnZlcnNpb249IjAuOTIuMyAoMjQwNTU0NiwgMjAxOC0wMy0xMSkiIHNvZGlwb2RpOmRvY25hbWU9InBsYXkuc3ZnIiB4PSIwcHgiIHk9IjBweCIgdmlld0JveD0iMCAwIDI3IDI3IiBzdHlsZT0iZW5hYmxlLWJhY2tncm91bmQ6bmV3IDAgMCAyNyAyNzsiIHhtbDpzcGFjZT0icHJlc2VydmUiPiYjeGE7PHNvZGlwb2RpOm5hbWVkdmlldyBib3JkZXJjb2xvcj0iIzY2NjY2NiIgYm9yZGVyb3BhY2l0eT0iMSIgZml0LW1hcmdpbi1ib3R0b209IjAiIGZpdC1tYXJnaW4tbGVmdD0iMCIgZml0LW1hcmdpbi1yaWdodD0iMCIgZml0LW1hcmdpbi10b3A9IjAiIGdyaWR0b2xlcmFuY2U9IjEwIiBndWlkZXRvbGVyYW5jZT0iMTAiIGlkPSJuYW1lZHZpZXc5Mjc3OSIgaW5rc2NhcGU6Y3VycmVudC1sYXllcj0ic3ZnOTI3NzciIGlua3NjYXBlOmN4PSIxNy45OTk1MjIiIGlua3NjYXBlOmN5PSIxNy45OTk4NTYiIGlua3NjYXBlOnBhZ2VvcGFjaXR5PSIwIiBpbmtzY2FwZTpwYWdlc2hhZG93PSIyIiBpbmtzY2FwZTp3aW5kb3ctaGVpZ2h0PSIxMDE3IiBpbmtzY2FwZTp3aW5kb3ctbWF4aW1pemVkPSIxIiBpbmtzY2FwZTp3aW5kb3ctd2lkdGg9IjE5MjAiIGlua3NjYXBlOndpbmRvdy14PSItOCIgaW5rc2NhcGU6d2luZG93LXk9Ii04IiBpbmtzY2FwZTp6b29tPSIyNC4wODMxNCIgb2JqZWN0dG9sZXJhbmNlPSIxMCIgcGFnZWNvbG9yPSIjZmZmZmZmIiBzaG93Z3JpZD0iZmFsc2UiPiYjeGE7CTwvc29kaXBvZGk6bmFtZWR2aWV3PiYjeGE7PGcgaWQ9Imc5Mjc3NSIgdHJhbnNmb3JtPSJ0cmFuc2xhdGUoMS45OTMyMDk4ZS02LDQuMzc4NDU4MWUtNSkiPiYjeGE7CTx0aXRsZSBpZD0idGl0bGU5Mjc2MCI+UGFnZS0xPC90aXRsZT4mI3hhOwk8ZyBpZD0iZ3JvdXA1OTA1LTEiIHRyYW5zZm9ybT0idHJhbnNsYXRlKDAuNzQ5OTkzLC0wLjc0OTk5MykiPiYjeGE7CQk8dGl0bGUgaWQ9InRpdGxlOTI3NjIiPlBsYXk8L3RpdGxlPiYjeGE7CQk8ZyBpZD0ic2hhcGU1OTA2LTIiPiYjeGE7CQkJPHRpdGxlIGlkPSJ0aXRsZTkyNzY0Ij5TaGVldC41OTA2PC90aXRsZT4mI3hhOwkJCSYjeGE7CQkJCTxwYXRoIGlkPSJwYXRoOTI3NjYiIGlua3NjYXBlOmNvbm5lY3Rvci1jdXJ2YXR1cmU9IjAiIHN0eWxlPSJmaWxsOm5vbmU7c3Ryb2tlOiM1NTZBOEE7c3Ryb2tlLXdpZHRoOjEuNTtzdHJva2UtbGluZWNhcDpyb3VuZDtzdHJva2UtbGluZWpvaW46cm91bmQ7c3Ryb2tlLW1pdGVybGltaXQ6MzsiIGQ9IiAgICAgTTMsMS41aDE5LjVjMS42OCwwLDMsMS4zOCwzLDNWMjRjMCwxLjY4LTEuMzIsMy0zLDNIM2MtMS42MiwwLTMtMS4zMi0zLTNWNC41QzAsMi44OCwxLjM4LDEuNSwzLDEuNSIvPiYjeGE7CQk8L2c+JiN4YTsJCTxnIGlkPSJzaGFwZTU5MDctNSIgdHJhbnNmb3JtPSJ0cmFuc2xhdGUoNi43Nzk4MiwtNS4yMjAwNCkiPiYjeGE7CQkJPHRpdGxlIGlkPSJ0aXRsZTkyNzY5Ij5TaGVldC41OTA3PC90aXRsZT4mI3hhOwkJCTxwYXRoIGlkPSJwYXRoOTI3NzEiIGlua3NjYXBlOmNvbm5lY3Rvci1jdXJ2YXR1cmU9IjAiIHN0eWxlPSJmaWxsOiMyQkM3RjQ7IiBkPSJNMCwyN1YxMmwxMy4yLDcuNTZMMCwyN3oiLz4mI3hhOwkJPC9nPiYjeGE7CTwvZz4mI3hhOzwvZz4mI3hhOzwvc3ZnPg==;spacingTop=2;" parent="1" vertex="1">
          <mxGeometry x="140" y="529.25" width="53" height="53" as="geometry" />
        </mxCell>
        <mxCell id="AcxdMaKK0mU5kZiv2lnr-9" value="Azure Blob&lt;br&gt;Storage&lt;br&gt;" style="aspect=fixed;html=1;perimeter=none;align=center;shadow=0;dashed=0;image;fontSize=12;image=img/lib/mscae/BlobBlock.svg;labelBackgroundColor=none;" parent="1" vertex="1">
          <mxGeometry x="510" y="204.13" width="62" height="53" as="geometry" />
        </mxCell>
        <mxCell id="AcxdMaKK0mU5kZiv2lnr-11" value="Azure CDN" style="aspect=fixed;html=1;perimeter=none;align=center;shadow=0;dashed=0;image;fontSize=12;image=img/lib/mscae/Content_Delivery_Network.svg;" parent="1" vertex="1">
          <mxGeometry x="-257" y="512" width="96" height="44" as="geometry" />
        </mxCell>
        <mxCell id="AcxdMaKK0mU5kZiv2lnr-12" value="Azure Media&lt;br&gt;Player in Browser&lt;br&gt;" style="aspect=fixed;html=1;perimeter=none;align=center;shadow=0;dashed=0;image;fontSize=12;image=img/lib/mscae/Browser.svg;spacingTop=5;" parent="1" vertex="1">
          <mxGeometry x="-141.75000000000034" y="370" width="50" height="42.5" as="geometry" />
        </mxCell>
        <mxCell id="AcxdMaKK0mU5kZiv2lnr-13" value="Azure Media Player&lt;br&gt;in Mobile App&lt;br&gt;" style="aspect=fixed;html=1;perimeter=none;align=center;shadow=0;dashed=0;image;fontSize=12;image=img/lib/mscae/App_Service_Mobile_App.svg;" parent="1" vertex="1">
          <mxGeometry x="-134.0000000000001" y="590" width="34.5" height="50" as="geometry" />
        </mxCell>
        <mxCell id="AcxdMaKK0mU5kZiv2lnr-29" style="edgeStyle=orthogonalEdgeStyle;rounded=0;orthogonalLoop=1;jettySize=auto;html=1;exitX=0.364;exitY=0.004;exitDx=0;exitDy=0;exitPerimeter=0;entryX=1.043;entryY=0.678;entryDx=0;entryDy=0;entryPerimeter=0;strokeColor=#808080;" parent="1" target="AcxdMaKK0mU5kZiv2lnr-12" edge="1">
          <mxGeometry relative="1" as="geometry">
            <mxPoint x="-13.61999999999989" y="489.20000000000005" as="sourcePoint" />
            <mxPoint x="-80.89655172413791" y="401.48275862068965" as="targetPoint" />
            <Array as="points">
              <mxPoint x="-14" y="399" />
              <mxPoint x="-30" y="399" />
            </Array>
          </mxGeometry>
        </mxCell>
        <mxCell id="t1hzlKuld_CgmVLitGFj-4" style="edgeStyle=orthogonalEdgeStyle;rounded=0;orthogonalLoop=1;jettySize=auto;html=1;entryX=0.375;entryY=-0.041;entryDx=0;entryDy=0;entryPerimeter=0;startArrow=classic;startFill=1;" parent="1" target="AcxdMaKK0mU5kZiv2lnr-6" edge="1">
          <mxGeometry relative="1" as="geometry">
            <mxPoint x="667" y="114" as="sourcePoint" />
          </mxGeometry>
        </mxCell>
        <mxCell id="t1hzlKuld_CgmVLitGFj-2" value="&lt;span style=&quot;font-weight: normal; font-size: 12px;&quot;&gt;&lt;font color=&quot;#000000&quot; style=&quot;font-size: 12px;&quot;&gt;Azure&lt;br style=&quot;font-size: 12px;&quot;&gt;Text-to-Speech&lt;/font&gt;&lt;/span&gt;" style="html=1;fillColor=#5184F3;strokeColor=none;verticalAlign=top;labelPosition=center;verticalLabelPosition=bottom;align=center;spacingTop=-6;fontSize=12;fontStyle=1;fontColor=#999999;shape=mxgraph.gcp2.hexIcon;prIcon=cloud_text_to_speech" parent="1" vertex="1">
          <mxGeometry x="629" y="356.75" width="80" height="70.5" as="geometry" />
        </mxCell>
        <mxCell id="t1hzlKuld_CgmVLitGFj-10" style="edgeStyle=orthogonalEdgeStyle;rounded=0;orthogonalLoop=1;jettySize=auto;html=1;entryX=-0.081;entryY=0.575;entryDx=0;entryDy=0;entryPerimeter=0;startArrow=classic;startFill=1;" parent="1" source="t1hzlKuld_CgmVLitGFj-7" target="AcxdMaKK0mU5kZiv2lnr-9" edge="1">
          <mxGeometry relative="1" as="geometry" />
        </mxCell>
        <mxCell id="t1hzlKuld_CgmVLitGFj-7" value="Azure &lt;br&gt;Virtual Agent" style="points=[[0,0,0],[0.25,0,0],[0.5,0,0],[0.75,0,0],[1,0,0],[0,1,0],[0.25,1,0],[0.5,1,0],[0.75,1,0],[1,1,0],[0,0.25,0],[0,0.5,0],[0,0.75,0],[1,0.25,0],[1,0.5,0],[1,0.75,0]];points=[[0,0,0],[0.25,0,0],[0.5,0,0],[0.75,0,0],[1,0,0],[0,1,0],[0.25,1,0],[0.5,1,0],[0.75,1,0],[1,1,0],[0,0.25,0],[0,0.5,0],[0,0.75,0],[1,0.25,0],[1,0.5,0],[1,0.75,0]];outlineConnect=0;fontColor=#232F3E;gradientColor=#F34482;gradientDirection=north;fillColor=#BC1356;strokeColor=#ffffff;dashed=0;verticalLabelPosition=bottom;verticalAlign=top;align=center;html=1;fontSize=12;fontStyle=0;aspect=fixed;shape=mxgraph.aws4.resourceIcon;resIcon=mxgraph.aws4.chatbot;" parent="1" vertex="1">
          <mxGeometry x="354" y="204.13" width="59.75" height="59.75" as="geometry" />
        </mxCell>
        <mxCell id="t1hzlKuld_CgmVLitGFj-13" style="edgeStyle=orthogonalEdgeStyle;rounded=0;orthogonalLoop=1;jettySize=auto;html=1;startArrow=classic;startFill=1;" parent="1" source="t1hzlKuld_CgmVLitGFj-12" edge="1">
          <mxGeometry relative="1" as="geometry">
            <mxPoint x="710" y="234" as="targetPoint" />
          </mxGeometry>
        </mxCell>
        <mxCell id="t1hzlKuld_CgmVLitGFj-12" value="Azure&lt;br&gt;Storage Table" style="verticalLabelPosition=bottom;html=1;verticalAlign=top;align=center;strokeColor=none;fillColor=#00BEF2;shape=mxgraph.azure.storage_table;" parent="1" vertex="1">
          <mxGeometry x="780" y="211.5" width="50" height="45" as="geometry" />
        </mxCell>
        <mxCell id="pvsEkngXm5sePPNVfWJY-1" value="Data source" style="aspect=fixed;perimeter=ellipsePerimeter;html=1;align=center;shadow=0;dashed=0;spacingTop=3;image;image=img/lib/active_directory/database_cube.svg;" vertex="1" parent="1">
          <mxGeometry x="637.05" y="40" width="63.9" height="71" as="geometry" />
        </mxCell>
      </root>
    </mxGraphModel>
  </diagram>
  <diagram name="FileLoad" id="4qPTHFZEd92124PaGhcX">
    <mxGraphModel dx="494" dy="265" grid="0" gridSize="10" guides="1" tooltips="1" connect="1" arrows="1" fold="1" page="1" pageScale="1" pageWidth="1169" pageHeight="827" math="0" shadow="0">
      <root>
        <mxCell id="GOqR9x0fnhTcKB3QiZrW-0" />
        <mxCell id="GOqR9x0fnhTcKB3QiZrW-1" parent="GOqR9x0fnhTcKB3QiZrW-0" />
        <mxCell id="R2ylvD8PRDnI84vXFAQ7-2" value="" style="rounded=1;whiteSpace=wrap;html=1;labelBackgroundColor=none;fontSize=12;arcSize=2;strokeColor=#C2C2C2;fillColor=#F7F7F7;" parent="GOqR9x0fnhTcKB3QiZrW-1" vertex="1">
          <mxGeometry x="490" y="760" width="453" height="500" as="geometry" />
        </mxCell>
        <mxCell id="GOqR9x0fnhTcKB3QiZrW-13" style="edgeStyle=orthogonalEdgeStyle;rounded=0;orthogonalLoop=1;jettySize=auto;html=1;entryX=0.5;entryY=0.16;entryDx=0;entryDy=0;entryPerimeter=0;startArrow=classic;startFill=1;" parent="GOqR9x0fnhTcKB3QiZrW-1" target="GOqR9x0fnhTcKB3QiZrW-24" edge="1" source="mmeNxfu1gKQq01MQzJPY-0">
          <mxGeometry relative="1" as="geometry">
            <mxPoint x="772" y="382" as="sourcePoint" />
          </mxGeometry>
        </mxCell>
        <mxCell id="GOqR9x0fnhTcKB3QiZrW-17" value="Azure Blob&lt;br&gt;Storage&lt;br&gt;" style="aspect=fixed;html=1;perimeter=none;align=center;shadow=0;dashed=0;image;fontSize=12;image=img/lib/mscae/BlobBlock.svg;labelBackgroundColor=none;" parent="GOqR9x0fnhTcKB3QiZrW-1" vertex="1">
          <mxGeometry x="809" y="499.37" width="55.86" height="47.75" as="geometry" />
        </mxCell>
        <mxCell id="GOqR9x0fnhTcKB3QiZrW-24" value="&lt;span style=&quot;font-weight: normal; font-size: 12px;&quot;&gt;&lt;font color=&quot;#000000&quot; style=&quot;font-size: 12px;&quot;&gt;Azure&lt;br style=&quot;font-size: 12px;&quot;&gt;Text-to-Speech&lt;/font&gt;&lt;/span&gt;" style="html=1;fillColor=#5184F3;strokeColor=none;verticalAlign=top;labelPosition=center;verticalLabelPosition=bottom;align=center;spacingTop=-6;fontSize=12;fontStyle=1;fontColor=#999999;shape=mxgraph.gcp2.hexIcon;prIcon=cloud_text_to_speech" parent="GOqR9x0fnhTcKB3QiZrW-1" vertex="1">
          <mxGeometry x="474" y="490" width="80" height="70.5" as="geometry" />
        </mxCell>
        <mxCell id="29txLPimRGxZ8eqfhpjl-10" style="edgeStyle=orthogonalEdgeStyle;rounded=0;orthogonalLoop=1;jettySize=auto;html=1;entryX=1.003;entryY=0.46;entryDx=0;entryDy=0;entryPerimeter=0;startArrow=classic;startFill=1;endArrow=classic;endFill=1;" edge="1" parent="GOqR9x0fnhTcKB3QiZrW-1" source="GOqR9x0fnhTcKB3QiZrW-26" target="GOqR9x0fnhTcKB3QiZrW-17">
          <mxGeometry relative="1" as="geometry">
            <mxPoint x="970" y="398" as="sourcePoint" />
            <Array as="points">
              <mxPoint x="963" y="521" />
            </Array>
          </mxGeometry>
        </mxCell>
        <mxCell id="GOqR9x0fnhTcKB3QiZrW-26" value="Azure &lt;br&gt;Virtual Agent" style="points=[[0,0,0],[0.25,0,0],[0.5,0,0],[0.75,0,0],[1,0,0],[0,1,0],[0.25,1,0],[0.5,1,0],[0.75,1,0],[1,1,0],[0,0.25,0],[0,0.5,0],[0,0.75,0],[1,0.25,0],[1,0.5,0],[1,0.75,0]];points=[[0,0,0],[0.25,0,0],[0.5,0,0],[0.75,0,0],[1,0,0],[0,1,0],[0.25,1,0],[0.5,1,0],[0.75,1,0],[1,1,0],[0,0.25,0],[0,0.5,0],[0,0.75,0],[1,0.25,0],[1,0.5,0],[1,0.75,0]];outlineConnect=0;fontColor=#232F3E;gradientColor=#F34482;gradientDirection=north;fillColor=#BC1356;strokeColor=#ffffff;dashed=0;verticalLabelPosition=bottom;verticalAlign=top;align=center;html=1;fontSize=12;fontStyle=0;aspect=fixed;shape=mxgraph.aws4.resourceIcon;resIcon=mxgraph.aws4.chatbot;labelBackgroundColor=#ffffff;" parent="GOqR9x0fnhTcKB3QiZrW-1" vertex="1">
          <mxGeometry x="935" y="334" width="59.75" height="59.75" as="geometry" />
        </mxCell>
        <mxCell id="29txLPimRGxZ8eqfhpjl-5" style="edgeStyle=orthogonalEdgeStyle;rounded=0;orthogonalLoop=1;jettySize=auto;html=1;startArrow=classic;startFill=1;" edge="1" parent="GOqR9x0fnhTcKB3QiZrW-1" source="GOqR9x0fnhTcKB3QiZrW-28">
          <mxGeometry relative="1" as="geometry">
            <mxPoint x="750" y="400" as="targetPoint" />
          </mxGeometry>
        </mxCell>
        <mxCell id="GOqR9x0fnhTcKB3QiZrW-28" value="Azure&lt;br&gt;Storage Table" style="verticalLabelPosition=bottom;html=1;verticalAlign=top;align=center;strokeColor=none;fillColor=#00BEF2;shape=mxgraph.azure.storage_table;" parent="GOqR9x0fnhTcKB3QiZrW-1" vertex="1">
          <mxGeometry x="632.5" y="498.75" width="50" height="45" as="geometry" />
        </mxCell>
        <mxCell id="29txLPimRGxZ8eqfhpjl-4" style="edgeStyle=orthogonalEdgeStyle;rounded=0;orthogonalLoop=1;jettySize=auto;html=1;entryX=0.007;entryY=0.466;entryDx=0;entryDy=0;entryPerimeter=0;" edge="1" parent="GOqR9x0fnhTcKB3QiZrW-1" source="R2ylvD8PRDnI84vXFAQ7-0" target="GOqR9x0fnhTcKB3QiZrW-17">
          <mxGeometry relative="1" as="geometry">
            <Array as="points">
              <mxPoint x="750" y="521" />
            </Array>
          </mxGeometry>
        </mxCell>
        <mxCell id="29txLPimRGxZ8eqfhpjl-6" style="edgeStyle=orthogonalEdgeStyle;rounded=0;orthogonalLoop=1;jettySize=auto;html=1;startArrow=classic;startFill=1;" edge="1" parent="GOqR9x0fnhTcKB3QiZrW-1" source="R2ylvD8PRDnI84vXFAQ7-0" target="GOqR9x0fnhTcKB3QiZrW-23">
          <mxGeometry relative="1" as="geometry" />
        </mxCell>
        <mxCell id="R2ylvD8PRDnI84vXFAQ7-0" value="Azure &lt;br&gt;Function App&amp;nbsp;" style="aspect=fixed;html=1;points=[];align=center;image;fontSize=12;image=img/lib/azure2/compute/Function_Apps.svg;labelBackgroundColor=#ffffff;" parent="GOqR9x0fnhTcKB3QiZrW-1" vertex="1">
          <mxGeometry x="720" y="340" width="68" height="60" as="geometry" />
        </mxCell>
        <mxCell id="29txLPimRGxZ8eqfhpjl-2" style="edgeStyle=orthogonalEdgeStyle;rounded=0;orthogonalLoop=1;jettySize=auto;html=1;entryX=0;entryY=0.5;entryDx=0;entryDy=0;" edge="1" parent="GOqR9x0fnhTcKB3QiZrW-1" target="GOqR9x0fnhTcKB3QiZrW-23">
          <mxGeometry relative="1" as="geometry">
            <mxPoint x="514" y="330" as="sourcePoint" />
            <Array as="points">
              <mxPoint x="514" y="212" />
            </Array>
          </mxGeometry>
        </mxCell>
        <mxCell id="29txLPimRGxZ8eqfhpjl-7" style="edgeStyle=orthogonalEdgeStyle;rounded=0;orthogonalLoop=1;jettySize=auto;html=1;entryX=0.005;entryY=0.389;entryDx=0;entryDy=0;entryPerimeter=0;startArrow=classic;startFill=1;" edge="1" parent="GOqR9x0fnhTcKB3QiZrW-1" source="mmeNxfu1gKQq01MQzJPY-0" target="R2ylvD8PRDnI84vXFAQ7-0">
          <mxGeometry relative="1" as="geometry" />
        </mxCell>
        <mxCell id="mmeNxfu1gKQq01MQzJPY-0" value="Azure &lt;br&gt;Function App &lt;br&gt;Orchestrator" style="aspect=fixed;html=1;points=[];align=center;image;fontSize=12;image=img/lib/azure2/compute/Function_Apps.svg;labelBackgroundColor=#ffffff;" parent="GOqR9x0fnhTcKB3QiZrW-1" vertex="1">
          <mxGeometry x="480" y="334" width="68" height="60" as="geometry" />
        </mxCell>
        <mxCell id="GOqR9x0fnhTcKB3QiZrW-23" value="Data source" style="aspect=fixed;perimeter=ellipsePerimeter;html=1;align=center;shadow=0;dashed=0;spacingTop=3;image;image=img/lib/active_directory/database_server.svg;fontFamily=Helvetica;fontSize=12;fontColor=#000000;strokeColor=#000000;fillColor=#ffffff;labelBackgroundColor=#ffffff;" parent="GOqR9x0fnhTcKB3QiZrW-1" vertex="1">
          <mxGeometry x="719" y="180" width="70" height="64" as="geometry" />
        </mxCell>
      </root>
    </mxGraphModel>
  </diagram>
  <diagram name="Update" id="-DzQbg5pzREM2lxUsJeJ">
    <mxGraphModel dx="1038" dy="556" grid="1" gridSize="10" guides="1" tooltips="1" connect="1" arrows="1" fold="1" page="1" pageScale="1" pageWidth="1169" pageHeight="827" math="0" shadow="0">
      <root>
        <mxCell id="V48H8RkEeM0_1-wHCLG--0" />
        <mxCell id="V48H8RkEeM0_1-wHCLG--1" parent="V48H8RkEeM0_1-wHCLG--0" />
        <mxCell id="V48H8RkEeM0_1-wHCLG--2" style="edgeStyle=orthogonalEdgeStyle;rounded=0;orthogonalLoop=1;jettySize=auto;html=1;entryX=0;entryY=0.5;entryDx=0;entryDy=0;entryPerimeter=0;startArrow=classic;startFill=1;exitX=1.076;exitY=0.477;exitDx=0;exitDy=0;exitPerimeter=0;" parent="V48H8RkEeM0_1-wHCLG--1" source="V48H8RkEeM0_1-wHCLG--3" target="V48H8RkEeM0_1-wHCLG--12" edge="1">
          <mxGeometry relative="1" as="geometry" />
        </mxCell>
        <mxCell id="V48H8RkEeM0_1-wHCLG--3" value="Teams/Web" style="aspect=fixed;html=1;perimeter=none;align=center;shadow=0;dashed=0;image;fontSize=12;image=img/lib/mscae/TaskVM.svg;labelBackgroundColor=none;" parent="V48H8RkEeM0_1-wHCLG--1" vertex="1">
          <mxGeometry x="150" y="326" width="63" height="60" as="geometry" />
        </mxCell>
        <mxCell id="V48H8RkEeM0_1-wHCLG--15" style="edgeStyle=orthogonalEdgeStyle;rounded=0;orthogonalLoop=1;jettySize=auto;html=1;fontSize=12;startArrow=none;startFill=1;entryX=0.5;entryY=0.938;entryDx=0;entryDy=0;entryPerimeter=0;" parent="V48H8RkEeM0_1-wHCLG--1" source="V48H8RkEeM0_1-wHCLG--18" target="V48H8RkEeM0_1-wHCLG--9" edge="1">
          <mxGeometry relative="1" as="geometry">
            <mxPoint x="521" y="250" as="targetPoint" />
          </mxGeometry>
        </mxCell>
        <mxCell id="V48H8RkEeM0_1-wHCLG--23" style="edgeStyle=orthogonalEdgeStyle;rounded=0;orthogonalLoop=1;jettySize=auto;html=1;entryX=0.456;entryY=1.014;entryDx=0;entryDy=0;entryPerimeter=0;fontSize=12;startArrow=classic;startFill=1;endArrow=none;endFill=0;exitX=0.511;exitY=-0.022;exitDx=0;exitDy=0;exitPerimeter=0;" parent="V48H8RkEeM0_1-wHCLG--1" source="V48H8RkEeM0_1-wHCLG--7" target="V48H8RkEeM0_1-wHCLG--18" edge="1">
          <mxGeometry relative="1" as="geometry" />
        </mxCell>
        <mxCell id="V48H8RkEeM0_1-wHCLG--7" value="Azure Blob&lt;br&gt;Storage&lt;br&gt;" style="aspect=fixed;html=1;perimeter=none;align=center;shadow=0;dashed=0;image;fontSize=12;image=img/lib/mscae/BlobBlock.svg;labelBackgroundColor=none;" parent="V48H8RkEeM0_1-wHCLG--1" vertex="1">
          <mxGeometry x="488" y="440" width="62" height="53" as="geometry" />
        </mxCell>
        <mxCell id="V48H8RkEeM0_1-wHCLG--9" value="Azure &lt;br&gt;Active Directory" style="aspect=fixed;html=1;points=[];align=center;image;fontSize=12;image=img/lib/azure2/identity/Azure_Active_Directory.svg;labelBackgroundColor=none;" parent="V48H8RkEeM0_1-wHCLG--1" vertex="1">
          <mxGeometry x="487" y="170" width="70" height="64" as="geometry" />
        </mxCell>
        <mxCell id="V48H8RkEeM0_1-wHCLG--17" style="edgeStyle=orthogonalEdgeStyle;rounded=0;orthogonalLoop=1;jettySize=auto;html=1;fontSize=12;startArrow=classic;startFill=1;" parent="V48H8RkEeM0_1-wHCLG--1" edge="1">
          <mxGeometry relative="1" as="geometry">
            <mxPoint x="364" y="325" as="sourcePoint" />
            <mxPoint x="486" y="207" as="targetPoint" />
            <Array as="points">
              <mxPoint x="364" y="207" />
            </Array>
          </mxGeometry>
        </mxCell>
        <mxCell id="V48H8RkEeM0_1-wHCLG--24" style="edgeStyle=orthogonalEdgeStyle;rounded=0;orthogonalLoop=1;jettySize=auto;html=1;entryX=-0.064;entryY=0.469;entryDx=0;entryDy=0;entryPerimeter=0;fontSize=12;startArrow=none;startFill=0;endArrow=classic;endFill=1;" parent="V48H8RkEeM0_1-wHCLG--1" source="V48H8RkEeM0_1-wHCLG--12" target="V48H8RkEeM0_1-wHCLG--18" edge="1">
          <mxGeometry relative="1" as="geometry" />
        </mxCell>
        <mxCell id="oPEt3vBwBO_2hNOmkjgT-0" style="edgeStyle=orthogonalEdgeStyle;rounded=0;orthogonalLoop=1;jettySize=auto;html=1;entryX=-0.006;entryY=0.475;entryDx=0;entryDy=0;entryPerimeter=0;fontSize=12;startArrow=classic;startFill=1;endArrow=none;endFill=0;" parent="V48H8RkEeM0_1-wHCLG--1" source="V48H8RkEeM0_1-wHCLG--12" target="V48H8RkEeM0_1-wHCLG--7" edge="1">
          <mxGeometry relative="1" as="geometry">
            <Array as="points">
              <mxPoint x="364" y="465" />
            </Array>
          </mxGeometry>
        </mxCell>
        <mxCell id="V48H8RkEeM0_1-wHCLG--12" value="Azure &lt;br&gt;Virtual Agent" style="points=[[0,0,0],[0.25,0,0],[0.5,0,0],[0.75,0,0],[1,0,0],[0,1,0],[0.25,1,0],[0.5,1,0],[0.75,1,0],[1,1,0],[0,0.25,0],[0,0.5,0],[0,0.75,0],[1,0.25,0],[1,0.5,0],[1,0.75,0]];points=[[0,0,0],[0.25,0,0],[0.5,0,0],[0.75,0,0],[1,0,0],[0,1,0],[0.25,1,0],[0.5,1,0],[0.75,1,0],[1,1,0],[0,0.25,0],[0,0.5,0],[0,0.75,0],[1,0.25,0],[1,0.5,0],[1,0.75,0]];outlineConnect=0;fontColor=#232F3E;gradientColor=#F34482;gradientDirection=north;fillColor=#BC1356;strokeColor=#ffffff;dashed=0;verticalLabelPosition=bottom;verticalAlign=top;align=center;html=1;fontSize=12;fontStyle=0;aspect=fixed;shape=mxgraph.aws4.resourceIcon;resIcon=mxgraph.aws4.chatbot;" parent="V48H8RkEeM0_1-wHCLG--1" vertex="1">
          <mxGeometry x="334" y="324.13" width="59.75" height="59.75" as="geometry" />
        </mxCell>
        <mxCell id="g9ZwpIzWungVAqK955He-1" style="edgeStyle=orthogonalEdgeStyle;rounded=0;orthogonalLoop=1;jettySize=auto;html=1;entryX=0;entryY=0.5;entryDx=0;entryDy=0;entryPerimeter=0;fontSize=12;startArrow=classic;startFill=1;endArrow=classic;endFill=1;" parent="V48H8RkEeM0_1-wHCLG--1" source="V48H8RkEeM0_1-wHCLG--18" edge="1">
          <mxGeometry relative="1" as="geometry">
            <mxPoint x="640" y="356" as="targetPoint" />
          </mxGeometry>
        </mxCell>
        <mxCell id="V48H8RkEeM0_1-wHCLG--18" value="Azure&lt;br&gt;Function App" style="aspect=fixed;html=1;points=[];align=center;image;fontSize=12;image=img/lib/azure2/compute/Function_Apps.svg;labelBackgroundColor=none;" parent="V48H8RkEeM0_1-wHCLG--1" vertex="1">
          <mxGeometry x="488" y="326" width="68" height="60" as="geometry" />
        </mxCell>
        <mxCell id="xCls6w_6KzwtIUR7Bz8a-0" value="&lt;span style=&quot;font-weight: normal; font-size: 12px;&quot;&gt;&lt;font color=&quot;#000000&quot; style=&quot;font-size: 12px;&quot;&gt;Azure&lt;br style=&quot;font-size: 12px;&quot;&gt;Text-to-Speech&lt;/font&gt;&lt;/span&gt;" style="html=1;fillColor=#5184F3;strokeColor=none;verticalAlign=top;labelPosition=center;verticalLabelPosition=bottom;align=center;spacingTop=-6;fontSize=12;fontStyle=1;fontColor=#999999;shape=mxgraph.gcp2.hexIcon;prIcon=cloud_text_to_speech" vertex="1" parent="V48H8RkEeM0_1-wHCLG--1">
          <mxGeometry x="630" y="320.75" width="80" height="70.5" as="geometry" />
        </mxCell>
      </root>
    </mxGraphModel>
  </diagram>
</mxfile>
